<svg xmlns="http://www.w3.org/2000/svg" viewBox="0 0 32 32" width="24" height="24" style="border-color: rgba(0,0,0,0);border-width: bpx;border-style: undefined" filter="none">
    
    <g>
    <path d="M10.016 12.48c0-0.16-0.096-0.256-0.256-0.256h-2.944c-0.16 0-0.288 0.096-0.288 0.256v2.944c0 0.16 0.128 0.256 0.288 0.256h2.944c0.16 0 0.256-0.096 0.256-0.256v-2.944zM14.976 12.224h-2.976c-0.001-0-0.003-0-0.004-0-0.139 0-0.252 0.113-0.252 0.252 0 0.001 0 0.003 0 0.004v-0 2.944c0 0.16 0.128 0.256 0.256 0.256h2.976c0.001 0 0.003 0 0.004 0 0.139 0 0.252-0.113 0.252-0.252 0-0.001 0-0.003-0-0.004v0-2.944c0-0.001 0-0.003 0-0.004 0-0.139-0.113-0.252-0.252-0.252-0.001 0-0.003 0-0.004 0h0zM9.76 17.408h-2.944c-0.16 0-0.288 0.128-0.288 0.256v2.976c0 0.128 0.128 0.256 0.288 0.256h2.944c0.16 0 0.256-0.128 0.256-0.256v-2.976c0-0.001 0-0.003 0-0.004 0-0.139-0.113-0.252-0.252-0.252-0.001 0-0.003 0-0.004 0h0zM14.976 17.408h-2.976c-0.137 0.009-0.246 0.119-0.256 0.255l-0 0.001v2.976c0 0.128 0.128 0.256 0.256 0.256h2.976c0.137-0.009 0.246-0.119 0.256-0.255l0-0.001v-2.976c-0.009-0.137-0.119-0.247-0.255-0.256l-0.001-0zM17.216 12.224c-0.16 0-0.256 0.096-0.256 0.256v2.944c0 0.16 0.096 0.256 0.256 0.256h2.944c0.16 0 0.256-0.096 0.256-0.256v-2.944c0-0.16-0.096-0.256-0.256-0.256h-2.944zM7.136 7.168h0.672c0.422-0.006 0.762-0.346 0.768-0.767v-3.649c-0.006-0.422-0.346-0.762-0.767-0.768h-0.673c-0.422 0.006-0.762 0.346-0.768 0.767v3.617c0 0.448 0.352 0.8 0.768 0.8zM19.2 7.168h0.672c0.422-0.006 0.762-0.346 0.768-0.767v-3.649c-0.006-0.422-0.346-0.762-0.767-0.768h-0.673c-0.422 0.006-0.762 0.346-0.768 0.767v3.617c0 0.448 0.352 0.8 0.768 0.8zM14.464 22.496h-9.088c-0.723-0.003-1.309-0.589-1.312-1.312v-10.528h18.88v4.064h0.416c0.544 0 1.056 0.064 1.536 0.128v-8.576c0-0.96-0.768-1.76-1.728-1.76h-1.44v1.888c-0.001 1.025-0.831 1.855-1.856 1.856h-0.672c-1.025-0.001-1.855-0.831-1.856-1.856v-1.888h-7.68v1.888c-0.001 1.025-0.831 1.855-1.856 1.856h-0.672c-1.025-0.001-1.855-0.831-1.856-1.856v-1.888h-1.44c-0.96 0-1.76 0.8-1.76 1.76v16.672c0 0.96 0.8 1.76 1.76 1.76h10.752c-0.097-0.498-0.155-1.073-0.16-1.66l-0-0.004c0-0.16 0-0.352 0.032-0.544zM27.936 18.496c-1.168-1.172-2.763-1.918-4.532-1.984l-0.012-0h-0.224c-1.888 0-3.552 0.736-4.768 1.984-1.223 1.219-1.981 2.905-1.984 4.767v0.001c0 0.96 0.192 1.856 0.544 2.656s0.832 1.504 1.44 2.112c1.216 1.216 2.88 1.952 4.768 1.952 3.712 0 6.752-3.008 6.752-6.72-0.003-1.863-0.761-3.549-1.984-4.768l-0-0zM26.368 24.256h-2.24v2.208h-1.952v-2.208h-2.208v-1.984h2.208v-2.208h1.952v2.208h2.24v1.984z" fill="rgba(117.045,248.88,252.96,1)"></path>
    </g>
  </svg>